<?xml version="1.0" standalone="no"?>
<!DOCTYPE svg PUBLIC "-//W3C//DTD SVG 20010904//EN"
 "http://www.w3.org/TR/2001/REC-SVG-20010904/DTD/svg10.dtd">
<svg version="1.0" xmlns="http://www.w3.org/2000/svg"
 width="844.000000pt" height="205.000000pt" viewBox="0 0 844.000000 205.000000"
 preserveAspectRatio="xMidYMid meet">

<g transform="translate(0.000000,205.000000) scale(0.100000,-0.100000)"
fill="#FFFF00" stroke="none">
<path d="M4617 1992 c-28 -17 -33 -27 -18 -36 9 -6 57 41 50 48 -2 3 -17 -3
-32 -12z"/>
<path d="M4637 1913 c-80 -110 -126 -230 -222 -583 -31 -113 -57 -210 -60
-216 -2 -7 16 -35 40 -63 26 -30 42 -58 38 -66 -4 -11 2 -15 22 -15 31 0 30 4
-37 81 l-49 57 65 238 c99 362 130 443 212 554 24 33 40 60 35 60 -5 0 -25
-21 -44 -47z"/>
<path d="M3155 1801 c-24 -7 -16 -9 40 -10 39 -1 97 -8 130 -16 33 -8 77 -15
97 -15 20 0 40 -5 43 -11 5 -7 14 -4 26 7 28 26 23 33 -15 22 -26 -8 -49 -7
-98 5 -79 20 -184 28 -223 18z"/>
<path d="M4505 1793 c-18 -46 -55 -158 -54 -167 0 -6 15 32 34 84 18 52 32 96
30 98 -1 2 -6 -5 -10 -15z"/>
<path d="M5195 1801 c-24 -7 -16 -9 40 -10 39 -1 97 -8 130 -16 33 -8 76 -14
96 -15 19 0 40 -5 47 -12 9 -9 15 -8 27 8 22 29 18 33 -19 22 -26 -8 -49 -7
-98 5 -79 20 -184 28 -223 18z"/>
<path d="M5875 1801 c-24 -7 -16 -9 40 -10 39 -1 97 -8 130 -16 33 -8 78 -14
101 -15 22 0 45 -5 51 -11 8 -8 15 -4 27 12 20 29 16 33 -18 18 -22 -10 -40
-9 -99 4 -89 21 -192 28 -232 18z"/>
<path d="M3705 1790 l-120 -6 103 -2 c60 -1 110 -7 122 -14 17 -11 23 -9 42
10 l22 22 -24 -2 c-14 -1 -79 -5 -145 -8z"/>
<path d="M4093 1793 c-8 -3 -4 -12 13 -26 20 -18 36 -63 86 -242 33 -121 62
-222 64 -224 19 -21 5 43 -52 253 -69 250 -71 256 -111 239z"/>
<path d="M4180 1796 c0 -21 115 -417 118 -408 4 14 -98 394 -109 407 -5 5 -9
5 -9 1z"/>
<path d="M4740 1790 l-115 -6 106 -2 c63 -1 110 -7 117 -14 8 -8 15 -8 27 2
20 17 19 30 -2 28 -10 -1 -70 -5 -133 -8z"/>
<path d="M3533 1758 c-17 -21 -83 -165 -83 -180 1 -7 23 32 50 87 46 93 57
122 33 93z"/>
<path d="M4882 1737 l-32 -33 0 -314 c0 -311 0 -314 23 -338 18 -21 19 -24 4
-19 -11 4 -16 3 -12 -3 3 -6 14 -10 24 -10 24 0 47 -26 29 -33 -20 -7 -3 -19
21 -15 18 3 15 9 -29 58 l-49 55 -1 305 0 304 32 33 c17 18 29 35 27 38 -3 2
-20 -10 -37 -28z"/>
<path d="M5533 1679 c-59 -124 -53 -136 8 -16 52 105 53 107 42 107 -5 -1 -27
-41 -50 -91z"/>
<path d="M6217 1675 c-26 -52 -43 -95 -39 -95 4 0 29 43 55 95 26 52 43 95 39
95 -4 0 -29 -43 -55 -95z"/>
<path d="M3858 1732 c-14 -15 -24 -31 -22 -37 1 -5 22 -79 45 -164 24 -85 45
-149 47 -143 2 6 -15 79 -38 163 l-42 151 23 24 c12 13 20 26 17 29 -2 3 -16
-8 -30 -23z"/>
<path d="M3147 1695 c-14 -14 -28 -37 -31 -51 -9 -32 20 -92 54 -113 22 -14
21 -11 -7 22 -51 59 -42 125 20 152 25 11 28 14 11 15 -12 0 -33 -11 -47 -25z"/>
<path d="M5186 1691 c-45 -47 -37 -115 17 -153 l32 -22 -32 37 c-52 60 -44
118 22 152 24 12 26 15 9 15 -11 0 -33 -13 -48 -29z"/>
<path d="M5887 1709 c-22 -13 -47 -61 -47 -92 0 -28 32 -72 63 -88 16 -8 13
-2 -11 24 -43 44 -47 94 -13 131 13 14 33 27 45 29 19 4 20 4 1 5 -11 1 -28
-3 -38 -9z"/>
<path d="M3777 1696 c-4 -9 1 -39 10 -68 8 -29 33 -115 54 -192 34 -124 59
-186 59 -146 0 13 -110 412 -115 418 -1 2 -5 -4 -8 -12z"/>
<path d="M3067 1663 c-13 -12 -7 -71 8 -83 13 -11 13 -8 4 19 -6 17 -9 40 -6
51 5 21 4 24 -6 13z"/>
<path d="M5788 1641 c-4 -13 -2 -33 3 -43 15 -28 18 -19 10 27 -6 35 -8 37
-13 16z"/>
<path d="M5101 1624 c-1 -20 7 -37 21 -50 13 -10 18 -12 11 -4 -6 8 -16 31
-21 50 l-10 35 -1 -31z"/>
<path d="M3145 1515 c17 -14 48 -30 70 -36 118 -30 177 -52 221 -82 71 -49 94
-87 95 -161 1 -50 3 -55 8 -26 9 50 -5 118 -34 161 -30 46 -98 80 -227 113
-54 14 -112 32 -130 41 l-33 16 30 -26z"/>
<path d="M5185 1515 c17 -13 48 -29 70 -35 124 -33 178 -53 221 -83 57 -39 94
-89 94 -126 0 -14 5 -33 11 -41 7 -11 8 -1 3 35 -15 116 -86 178 -249 216 -49
11 -110 29 -135 40 l-45 20 30 -26z"/>
<path d="M5878 1510 c13 -11 43 -24 65 -30 122 -31 179 -53 225 -87 63 -47 85
-83 93 -153 l6 -55 2 55 c3 116 -67 192 -210 229 -46 12 -111 30 -144 41 -59
19 -60 19 -37 0z"/>
<path d="M4026 1434 c-4 -14 -5 -28 -3 -31 3 -2 8 8 11 23 4 14 5 28 3 31 -3
2 -8 -8 -11 -23z"/>
<path d="M3547 1361 c38 -60 45 -161 14 -223 -49 -102 -126 -150 -269 -168
l-67 -9 77 4 c122 6 220 62 269 157 42 81 33 187 -22 249 l-30 34 28 -44z"/>
<path d="M5577 1380 c60 -78 57 -216 -6 -296 -55 -70 -114 -98 -241 -114 l-65
-9 75 3 c122 4 222 63 271 158 42 81 33 187 -20 245 -14 16 -21 22 -14 13z"/>
<path d="M4006 1364 c-4 -14 -5 -28 -3 -31 3 -2 8 8 11 23 4 14 5 28 3 31 -3
2 -8 -8 -11 -23z"/>
<path d="M4067 1383 c-8 -14 -77 -269 -77 -285 0 -9 7 -21 15 -28 9 -7 13 -21
10 -31 -4 -11 -2 -19 5 -19 6 0 8 6 4 13 -4 6 5 1 20 -13 15 -13 22 -26 17
-28 -21 -7 -11 -22 14 -22 14 0 25 3 25 6 0 4 -22 32 -49 63 l-49 56 39 144
c34 127 42 172 26 144z"/>
<path d="M1072 1332 c13 -64 0 -137 -37 -217 -28 -57 -69 -112 -193 -255 -148
-169 -191 -251 -199 -377 -6 -89 10 -154 46 -187 17 -16 18 -14 23 42 9 91 45
148 184 294 202 210 237 282 238 483 0 100 -4 129 -22 176 -12 30 -28 64 -36
74 -12 17 -13 13 -4 -33z"/>
<path d="M6287 1333 c48 -93 16 -216 -77 -296 -45 -39 -95 -56 -195 -68 l-70
-8 82 4 c127 5 227 64 273 162 35 74 23 203 -22 241 -10 8 -6 -6 9 -35z"/>
<path d="M3991 1304 c0 -11 3 -14 6 -6 3 7 2 16 -1 19 -3 4 -6 -2 -5 -13z"/>
<path d="M3981 1264 c0 -11 3 -14 6 -6 3 7 2 16 -1 19 -3 4 -6 -2 -5 -13z"/>
<path d="M3017 1254 c-15 -15 -6 -54 19 -81 14 -15 22 -22 18 -14 -3 7 -12 33
-18 58 -6 24 -15 41 -19 37z"/>
<path d="M5057 1244 c-13 -13 -7 -42 13 -65 l20 -24 -6 30 c-11 48 -19 66 -27
59z"/>
<path d="M5736 1228 c-4 -16 2 -30 18 -46 l23 -23 -11 45 c-12 51 -21 58 -30
24z"/>
<path d="M3076 1208 c13 -44 33 -76 64 -102 49 -41 51 -31 4 18 -23 24 -45 58
-49 75 -4 17 -11 31 -16 31 -6 0 -7 -10 -3 -22z"/>
<path d="M5116 1208 c13 -44 33 -76 64 -102 44 -36 58 -33 16 4 -19 17 -43 51
-53 75 -18 46 -40 63 -27 23z"/>
<path d="M5805 1203 c11 -47 42 -88 85 -112 49 -27 53 -21 5 9 -22 13 -44 41
-61 76 -29 59 -40 69 -29 27z"/>
<path d="M3961 1194 c0 -11 3 -14 6 -6 3 7 2 16 -1 19 -3 4 -6 -2 -5 -13z"/>
<path d="M5572 1190 c0 -14 2 -19 5 -12 2 6 2 18 0 25 -3 6 -5 1 -5 -13z"/>
<path d="M3951 1154 c0 -11 3 -14 6 -6 3 7 2 16 -1 19 -3 4 -6 -2 -5 -13z"/>
<path d="M5850 1086 c0 -16 84 -46 127 -45 l48 1 -67 13 c-36 7 -76 18 -87 25
-12 6 -21 8 -21 6z"/>
<path d="M3140 1075 c0 -13 72 -35 112 -34 40 1 38 2 -24 14 -37 8 -72 17 -78
20 -5 3 -10 3 -10 0z"/>
<path d="M5180 1076 c0 -15 64 -36 107 -35 l48 1 -60 13 c-33 6 -68 15 -77 20
-10 4 -18 5 -18 1z"/>
<path d="M2955 1010 l-20 -9 20 0 c11 0 27 4 35 9 13 9 13 10 0 9 -8 0 -24 -4
-35 -9z"/>
<path d="M4998 1013 c-10 -2 -18 -8 -18 -13 0 -5 14 -4 30 1 45 16 36 25 -12
12z"/>
<path d="M5680 1010 c-12 -8 -12 -10 5 -10 11 0 27 5 35 10 12 8 12 10 -5 10
-11 0 -27 -5 -35 -10z"/>
<path d="M3885 980 l-90 -6 103 -2 c67 -1 101 2 97 8 -3 6 -9 9 -13 8 -4 -1
-47 -5 -97 -8z"/>
<path d="M4260 980 l-85 -6 98 -2 c63 -1 96 2 92 8 -3 6 -9 9 -13 8 -4 -1 -45
-5 -92 -8z"/>
<path d="M4698 973 c28 -2 76 -2 105 0 28 2 5 3 -53 3 -58 0 -81 -1 -52 -3z"/>
<path d="M1501 909 c-15 -36 -94 -215 -168 -379 -85 -191 -105 -225 -145 -241
-30 -11 -31 -13 -10 -16 13 -3 30 1 38 7 10 9 14 9 14 1 0 -7 26 -11 76 -11
47 0 73 4 69 10 -3 6 -17 10 -30 10 -13 0 -30 9 -38 21 -15 21 -14 33 13 107
l12 32 99 0 c77 0 99 3 99 14 0 16 -43 26 -116 26 -30 0 -54 2 -54 5 0 3 18
48 41 100 22 52 42 105 44 116 8 43 17 60 28 57 7 -2 67 -115 135 -251 l124
-247 59 0 c33 0 59 4 59 10 0 6 -6 10 -13 10 -30 0 -61 58 -183 335 -69 160
-130 294 -135 299 -4 5 -12 -1 -18 -15z"/>
<path d="M4710 910 c-45 -45 -11 -120 53 -120 42 0 67 26 67 68 0 41 -31 72
-70 72 -17 0 -39 -9 -50 -20z"/>
<path d="M3610 911 c0 -5 14 -11 32 -15 48 -9 58 -23 58 -77 0 -49 0 -49 33
-49 l34 0 6 -137 c4 -75 7 -177 7 -227 0 -140 -2 -136 89 -135 74 1 75 1 38
13 -21 6 -42 18 -47 26 -6 8 -10 67 -10 131 l0 115 88 11 c152 17 212 66 212
173 0 100 -57 152 -183 171 -80 11 -357 12 -357 0z m313 -40 c35 -14 67 -51
67 -78 0 -19 5 -23 29 -23 36 0 57 -42 47 -94 -7 -38 -67 -96 -99 -96 -17 0
-17 2 -3 22 24 34 19 42 -10 19 -17 -13 -41 -21 -65 -21 l-39 0 0 140 0 140
24 0 c14 0 36 -4 49 -9z"/>
<path d="M6035 825 c-22 -32 -63 -77 -92 -100 -28 -22 -52 -43 -52 -47 -2 -16
52 -7 77 12 14 11 29 17 33 13 4 -4 9 -93 11 -198 3 -168 5 -193 22 -219 17
-24 24 -27 55 -22 35 5 101 62 101 86 0 16 -15 12 -35 -10 -25 -28 -53 -25
-65 6 -6 14 -10 93 -10 175 l0 149 55 0 c48 0 55 3 55 19 0 17 -8 20 -52 23
l-53 3 -5 85 -5 85 -40 -60z"/>
<path d="M1170 755 c-1 -109 -56 -192 -227 -345 -102 -90 -138 -147 -149 -235
l-7 -50 47 52 c26 29 82 73 124 99 165 100 211 141 258 227 21 39 27 64 27
106 0 56 -29 149 -58 187 -13 17 -14 14 -15 -41z"/>
<path d="M6840 790 c0 -5 8 -10 18 -10 39 0 42 -17 42 -215 0 -198 -3 -215
-42 -215 -10 0 -18 -5 -18 -11 0 -20 308 -7 347 14 55 29 73 56 73 108 0 54
-31 93 -84 107 l-31 9 35 18 c47 24 59 43 60 87 0 53 -41 97 -100 109 -64 12
-300 11 -300 -1z m261 -49 c20 -20 29 -39 29 -61 0 -43 -47 -90 -89 -90 l-31
0 0 90 0 90 31 0 c20 0 40 -10 60 -29z m16 -216 c53 -61 7 -170 -69 -163 l-33
3 -3 99 -3 99 43 -6 c29 -4 50 -14 65 -32z"/>
<path d="M8050 791 c0 -5 7 -11 15 -15 13 -4 15 -37 15 -211 0 -174 -2 -207
-15 -211 -37 -14 -8 -24 70 -24 50 0 85 4 85 10 0 6 -7 10 -15 10 -26 0 -35
109 -9 117 6 2 28 -22 50 -53 25 -38 35 -59 26 -62 -6 -2 -12 -8 -12 -13 0 -5
36 -9 80 -9 74 0 101 10 66 23 -8 3 -42 47 -76 98 l-62 91 39 40 c21 22 52 46
68 54 28 12 26 13 -49 14 -78 0 -78 0 -55 -19 l23 -18 -57 -59 -57 -59 0 153
0 152 -65 0 c-36 0 -65 -4 -65 -9z"/>
<path d="M2150 719 c-14 -6 -37 -22 -52 -36 l-28 -27 0 27 0 27 -97 0 -98 0
33 -20 c17 -11 32 -24 32 -30 0 -5 11 -10 24 -10 14 0 28 -5 32 -11 4 -7 6
-73 5 -148 -1 -78 2 -149 9 -165 6 -17 7 -41 2 -60 -4 -17 -6 -70 -4 -118 l4
-88 67 0 c64 1 65 1 35 14 -40 18 -44 30 -44 144 l0 95 23 -21 c12 -11 34 -23
48 -27 21 -5 29 -1 43 20 17 25 17 26 -9 19 -26 -6 -68 14 -92 45 -8 11 -12
57 -13 135 0 113 1 121 26 153 16 22 33 33 50 33 40 0 101 -48 126 -99 46 -93
23 -249 -44 -295 -22 -16 -22 -16 -2 -16 66 0 133 96 141 203 14 173 -97 304
-217 256z"/>
<path d="M2598 720 c-50 -15 -108 -71 -123 -120 -7 -24 -7 -25 12 -7 20 18 21
17 21 -25 0 -126 3 -147 30 -199 38 -75 108 -120 166 -105 34 8 79 48 101 90
26 49 13 55 -25 12 -26 -29 -39 -36 -70 -36 -23 0 -48 8 -65 22 -32 25 -64 91
-65 131 0 26 1 27 60 27 47 0 60 3 60 15 0 12 -13 15 -61 15 l-61 0 4 55 c5
55 35 105 63 105 15 0 55 -42 55 -58 0 -6 9 -29 21 -51 11 -22 21 -49 22 -60
1 -17 8 -21 41 -21 l39 0 -6 52 c-14 117 -115 190 -219 158z"/>
<path d="M4495 711 c-17 -10 -45 -36 -63 -57 l-31 -39 -1 48 0 47 -91 0 -91 0
32 -30 c18 -16 40 -30 49 -30 28 0 41 -66 34 -182 -3 -57 -3 -125 1 -151 l7
-47 62 0 c61 1 61 1 35 16 -36 19 -42 45 -36 167 6 132 36 197 92 197 18 0 25
-6 28 -22 2 -15 11 -24 26 -26 34 -5 52 15 52 59 0 66 -45 87 -105 50z"/>
<path d="M5555 715 c-33 -9 -60 -24 -82 -49 -33 -36 -48 -81 -19 -57 11 9 16
5 26 -18 6 -16 9 -35 5 -40 -10 -18 52 -13 69 5 20 20 20 37 0 75 -19 39 -5
59 41 59 25 0 44 -10 76 -40 l43 -40 11 -152 c5 -84 14 -159 18 -166 5 -6 5
-17 1 -24 -14 -22 60 2 88 29 27 26 29 55 2 32 -9 -7 -18 -8 -24 -3 -4 5 -10
80 -12 166 l-3 157 -29 30 c-48 50 -116 62 -211 36z"/>
<path d="M6388 720 c-59 -18 -113 -75 -133 -140 -8 -24 -8 -24 16 3 l24 28 2
-85 c2 -107 16 -157 55 -202 76 -86 177 -78 238 21 30 48 15 62 -22 20 -25
-30 -37 -35 -72 -35 -33 0 -48 6 -69 28 -30 32 -57 91 -57 127 0 24 2 25 60
25 47 0 60 3 60 15 0 12 -14 15 -65 15 l-65 0 6 43 c16 104 58 143 101 93 13
-15 23 -34 23 -41 0 -8 9 -29 20 -47 11 -18 20 -43 20 -55 0 -20 5 -23 40 -23
37 0 40 2 40 29 0 124 -111 215 -222 181z"/>
<path d="M2870 706 c0 -9 77 -51 103 -56 23 -4 32 -13 42 -44 7 -21 24 -50 38
-65 13 -14 28 -37 33 -51 5 -14 33 -69 63 -123 l55 -97 60 0 60 0 -32 27 c-36
31 -145 230 -137 251 17 44 80 122 110 136 19 10 35 19 35 21 0 3 -34 5 -75 5
-43 0 -75 -4 -75 -10 0 -5 6 -10 14 -10 27 0 24 -29 -6 -76 l-30 -48 -24 44
c-27 52 -30 80 -10 80 8 0 18 5 21 10 4 6 -38 10 -119 10 -69 0 -126 -2 -126
-4z"/>
<path d="M4640 705 c0 -3 11 -10 25 -15 14 -5 25 -16 25 -24 0 -9 12 -16 28
-18 l27 -3 9 -185 c4 -102 9 -186 11 -188 1 -2 29 -2 61 0 45 3 54 5 39 12
-11 5 -23 14 -27 20 -4 6 -8 100 -8 209 l0 197 -95 0 c-52 0 -95 -2 -95 -5z"/>
<path d="M4930 680 c20 -18 43 -30 60 -30 22 0 29 -5 33 -29 9 -44 94 -221
106 -221 16 0 13 -36 -4 -70 -16 -31 -5 -85 16 -78 6 2 49 94 96 203 53 128
93 208 110 223 14 13 23 25 20 28 -2 3 -36 3 -73 1 -49 -2 -63 -5 -47 -11 38
-14 36 -40 -10 -158 -41 -103 -46 -111 -55 -88 -6 14 -26 63 -46 108 -42 98
-44 114 -13 135 20 15 14 16 -102 16 l-123 1 32 -30z"/>
<path d="M7382 643 c-39 -19 -54 -44 -50 -81 3 -24 7 -27 43 -27 36 0 40 2 39
25 -1 14 -4 33 -8 42 -5 11 -1 20 14 28 33 18 70 -11 70 -55 0 -31 -5 -36 -61
-66 -70 -38 -109 -80 -109 -118 0 -58 66 -79 129 -40 l33 20 20 -20 c24 -27
68 -27 102 0 28 22 27 34 -2 34 -15 0 -18 16 -22 118 -5 111 -6 119 -30 137
-32 25 -121 26 -168 3z m108 -188 c0 -51 -2 -55 -27 -61 -31 -8 -54 15 -46 47
5 16 56 69 69 69 2 0 4 -25 4 -55z"/>
<path d="M7823 640 c-27 -16 -33 -17 -33 -5 0 12 -14 15 -65 15 l-65 0 20 -20
c18 -18 20 -33 20 -135 0 -102 -2 -117 -20 -135 -11 -11 -20 -22 -20 -25 0 -3
36 -5 80 -5 44 0 80 3 80 6 0 3 -7 12 -15 20 -11 12 -15 40 -15 119 0 99 1
104 26 124 50 39 64 13 64 -125 0 -64 -4 -96 -15 -110 -8 -10 -15 -22 -15 -26
0 -5 36 -8 80 -8 47 0 80 4 80 10 0 6 -6 10 -14 10 -22 0 -26 23 -26 144 0 99
-3 117 -21 140 -26 32 -79 35 -126 6z"/>
<path d="M5573 504 c-74 -38 -128 -85 -136 -116 -6 -20 -6 -20 16 -1 42 38 48
38 41 -4 -5 -33 -2 -44 20 -70 20 -23 23 -33 13 -42 -9 -10 -6 -11 18 -5 54
12 105 51 105 80 0 2 -13 1 -28 -2 -33 -7 -62 16 -62 48 0 27 36 85 61 98 22
12 45 50 30 50 -5 0 -40 -16 -78 -36z"/>
<path d="M2983 359 c-23 -32 -53 -58 -78 -69 l-40 -19 95 0 c67 0 88 3 72 9
-33 14 -37 37 -13 80 33 59 7 58 -36 -1z"/>
<path d="M1565 280 l-30 -8 33 -1 c17 0 32 4 32 9 0 6 -1 9 -2 9 -2 -1 -16 -5
-33 -9z"/>
<path d="M3625 280 c-16 -7 -13 -9 18 -9 20 -1 37 4 37 9 0 12 -27 12 -55 0z"/>
<path d="M4230 280 c-13 -8 -12 -10 3 -10 9 0 17 5 17 10 0 12 -1 12 -20 0z"/>
<path d="M4650 280 c-12 -8 -11 -10 8 -10 12 0 22 5 22 10 0 13 -11 13 -30 0z"/>
<path d="M1900 70 c-13 -8 -12 -10 3 -10 9 0 17 5 17 10 0 12 -1 12 -20 0z"/>
</g>
</svg>
